<svg xmlns="http://www.w3.org/2000/svg" width="20.396" height="16.797" viewBox="0 0 20.396 16.797">
  <path id="Twitter" d="M20.4,1.988a8.306,8.306,0,0,1-2.4.668A4.244,4.244,0,0,0,19.832.311a8.294,8.294,0,0,1-2.658,1.028A4.151,4.151,0,0,0,14.12,0,4.213,4.213,0,0,0,9.935,4.24a4.344,4.344,0,0,0,.109.967A11.826,11.826,0,0,1,1.421.776,4.283,4.283,0,0,0,2.715,6.437a4.107,4.107,0,0,1-1.895-.53v.054a4.228,4.228,0,0,0,3.356,4.158,4.125,4.125,0,0,1-1.1.149,4.063,4.063,0,0,1-.787-.077A4.2,4.2,0,0,0,6.2,13.136,8.335,8.335,0,0,1,1,14.951a8.322,8.322,0,0,1-1-.059A11.726,11.726,0,0,0,6.415,16.8,11.91,11.91,0,0,0,18.32,4.732c0-.185,0-.366-.012-.548A8.57,8.57,0,0,0,20.4,1.989Z" fill="#1a5493"/>
</svg>
