<svg xmlns="http://www.w3.org/2000/svg" width="23.672" height="16.644" viewBox="0 0 23.672 16.644">
  <path id="Icon_awesome-youtube" data-name="Icon awesome-youtube" d="M24.227,7.1A2.974,2.974,0,0,0,22.134,5c-1.846-.5-9.248-.5-9.248-.5s-7.4,0-9.248.5A2.974,2.974,0,0,0,1.545,7.1a31.2,31.2,0,0,0-.495,5.735,31.2,31.2,0,0,0,.495,5.735,2.93,2.93,0,0,0,2.093,2.073c1.846.5,9.248.5,9.248.5s7.4,0,9.248-.5a2.93,2.93,0,0,0,2.093-2.073,31.2,31.2,0,0,0,.495-5.735A31.2,31.2,0,0,0,24.227,7.1ZM10.465,16.359V9.319l6.187,3.52-6.187,3.52Z" transform="translate(-1.05 -4.5)" fill="#1a5493"/>
</svg>
